<?xml version="1.0" encoding="UTF-8" standalone="no"?>
<!-- Created with Inkscape (http://www.inkscape.org/) -->
<svg xmlns:dc="http://purl.org/dc/elements/1.1/" xmlns:cc="http://creativecommons.org/ns#" xmlns:rdf="http://www.w3.org/1999/02/22-rdf-syntax-ns#" xmlns:svg="http://www.w3.org/2000/svg" xmlns="http://www.w3.org/2000/svg" xmlns:xlink="http://www.w3.org/1999/xlink" xmlns:sodipodi="http://sodipodi.sourceforge.net/DTD/sodipodi-0.dtd" xmlns:inkscape="http://www.inkscape.org/namespaces/inkscape" sodipodi:docname="kotoba_logo.svg" inkscape:version="0.92.2 (5c3e80d, 2017-08-06)" sodipodi:version="0.32" id="svg2" height="858.76819" width="599.99713" version="1.1" inkscape:export-filename="C:\Users\domo-kun\Desktop\kotoba_logo_lg.png" inkscape:export-xdpi="55.894012" inkscape:export-ydpi="55.894012">
  <defs id="defs3">
    <linearGradient id="linearGradient4686" inkscape:collect="always">
      <stop id="stop4682" offset="0" style="stop-color:#ffd9a3;stop-opacity:1"/>
      <stop id="stop4684" offset="1" style="stop-color:#000000;stop-opacity:1"/>
    </linearGradient>
    <linearGradient inkscape:collect="always" id="linearGradient3764">
      <stop style="stop-color:#fcd9a3;stop-opacity:1" offset="0" id="stop3760"/>
      <stop style="stop-color:#000000;stop-opacity:1" offset="1" id="stop3762"/>
    </linearGradient>
    <linearGradient inkscape:collect="always" xlink:href="#linearGradient3764" id="linearGradient4631" x1="365.90121" y1="343.71445" x2="435.1543" y2="260.02679" gradientUnits="userSpaceOnUse" gradientTransform="matrix(1.580944,0,0,1.580944,-212.4479,-382.3933)"/>
    <linearGradient inkscape:collect="always" xlink:href="#linearGradient4686" id="linearGradient4656" gradientUnits="userSpaceOnUse" gradientTransform="matrix(1.580944,0,0,1.580944,-212.4479,-382.3933)" x1="291.88123" y1="343.08194" x2="227.60909" y2="261.02258"/>
  </defs>
  <sodipodi:namedview inkscape:window-y="-8" inkscape:window-x="-8" inkscape:window-height="705" inkscape:window-width="1366" inkscape:guide-bbox="true" showguides="true" inkscape:current-layer="g3756" inkscape:document-units="px" inkscape:cy="297.67448" inkscape:cx="301.84595" inkscape:zoom="0.90160467" inkscape:pageshadow="2" inkscape:pageopacity="0.0" borderopacity="1.0" bordercolor="#666666" pagecolor="#ffffff" id="base" showgrid="false" inkscape:snap-grids="false" inkscape:snap-to-guides="false" inkscape:object-nodes="false" inkscape:snap-others="false" inkscape:snap-nodes="false" inkscape:window-maximized="1">
    <sodipodi:guide position="297.85522,522.04008" orientation="1,0" id="guide3740" inkscape:locked="false"/>
    <sodipodi:guide position="326.9986,707.81648" orientation="0,1" id="guide4658" inkscape:locked="false"/>
    <sodipodi:guide position="302.36302,29.054067" orientation="0,1" id="guide4696" inkscape:locked="false"/>
    <sodipodi:guide position="307.8431,13.674495" orientation="0,1" inkscape:locked="false" id="guide4698"/>
    <sodipodi:guide position="309.85393,561.66016" orientation="0,1" id="guide4738" inkscape:locked="false"/>
    <sodipodi:guide position="311.51122,474.37666" orientation="0,1" id="guide4740" inkscape:locked="false"/>
    <sodipodi:guide position="295.49083,329.36453" orientation="0,1" id="guide4744" inkscape:locked="false"/>
  </sodipodi:namedview>
  <metadata id="metadata4">
    <rdf:RDF>
      <cc:Work rdf:about="">
        <dc:format>image/svg+xml</dc:format>
        <dc:type rdf:resource="http://purl.org/dc/dcmitype/StillImage"/>
        <dc:title/>
      </cc:Work>
    </rdf:RDF>
  </metadata>
  <g inkscape:label="Layer 1" inkscape:groupmode="layer" id="g3756" transform="translate(-10.001401,-10.04827)">
    <path sodipodi:nodetypes="cscccccccccsccccccscc" inkscape:connector-curvature="0" id="path3746" d="m 518.69531,29.749996 c -10.84248,-0.361404 -22.40637,1.446565 -29.99609,4.337891 -7.58973,2.891325 -12.2891,5.059329 -20.24024,10.11914 -7.46132,4.814923 -10.58568,7.578448 -16.26367,13.734375 -4.6984,5.421247 -133.48828,163.695318 -133.48828,163.695318 -3.67351,4.40822 -6.81144,10.37823 -9.74805,10.26172 l -2.18164,616.37196 c 0.3883,0.0288 0.60622,0.0873 1.02735,0.11105 5.80243,0.0983 9.07289,-1.06915 14.14062,-3.66071 5.95722,-2.98118 4.02051,-1.62949 8.4668,-4.36484 l 246.4707,-198.52483 c 4.65312,-5.69613 3.65155,-3.20913 6.9043,-7.64571 3.25274,-4.43657 3.34544,-5.27989 4.42969,-9.71646 2.30874,-8.07577 1.67773,-15.09458 1.67773,-15.09458 l 1.08399,-516.376277 c 0,0 0.36202,-6.505712 -2.5293,-15.179688 -2.89133,-8.67396 -0.37386,-4.757756 -5.07227,-13.070312 -4.69839,-8.312556 -4.68584,-7.529758 -11.55273,-13.673828 -6.86689,-6.144055 -11.7992,-10.014742 -18.30469,-13.628907 -6.50547,-3.614148 -9.52533,-4.442917 -17.83789,-6.25 -8.31257,-1.807066 -6.14387,-1.083892 -16.98633,-1.445312 z" style="fill:url(#linearGradient4631);fill-opacity:1;fill-rule:evenodd;stroke:none;stroke-width:1.58094394px;stroke-linecap:butt;stroke-linejoin:miter;stroke-opacity:1"/>
    <path sodipodi:nodetypes="cccccccccccccccsccc" inkscape:connector-curvature="0" id="path4654" d="m 306.95412,848.2704 18.48515,-12.29265 -5.73744,-610.5567 -10.43349,6.52158 c -2.93661,-0.60631 -5.26604,-4.61546 -10.40896,-11.22779 L 165.19531,54.091793 c -10.80339,-9.386555 -13.8883,-11.345125 -23.8164,-16.751953 -10.10522,-4.52131 -25.698,-7.767033 -34.33594,-7.228516 -8.106621,-0.347001 -20.961138,1.085313 -28.189451,3.615234 -7.228313,2.529906 -16.660651,7.582206 -22.97461,12.103516 -6.845282,5.052618 -12.827349,12.117649 -16.080078,18.261719 -3.252745,6.14407 -7.589712,13.028071 -8.652344,23.123047 l -2.722656,525.77728 c 0.885518,4.46254 0.554155,5.23729 2.722656,9.69248 2.168486,5.37059 4.69826,11.20807 8.673828,16.11166 3.975569,4.90357 10.910968,12.3921 15.609376,15.66116 4.698391,3.26905 230.699219,185.28395 230.699219,185.28395 0,0 0.41016,0.33562 6.45507,3.90551 4.78589,2.48708 6.5592,4.04498 14.37014,4.62352 z" style="fill:url(#linearGradient4656);fill-opacity:1;fill-rule:evenodd;stroke:none;stroke-width:1.58094394px;stroke-linecap:butt;stroke-linejoin:miter;stroke-opacity:1"/>
    <path sodipodi:nodetypes="ssccccccccssccccccscs" inkscape:connector-curvature="0" id="path3748" d="m 98.302737,74.945308 c -7.322537,0 -8.453973,1.061244 -12.115234,1.976563 -3.661261,0.915319 -1.449202,0.241822 -8.238281,3.515625 -5.340271,4.360386 -6.503311,5.03446 -9.681641,10.818359 -2.695399,4.335123 -3.057439,5.232648 -4.626953,12.476565 l -1.421875,292.8086 C 103.84876,318.00261 178.17742,263.7887 263.60156,249.65625 L 136.59961,88.605465 c -3.3805,-1.690251 -5.10552,-4.698412 -17.24609,-10.457031 -4.6552,-1.050095 -0.36162,-7.7e-5 -5.85352,-1.373047 -5.4919,-1.372987 -7.87473,-1.830079 -15.197263,-1.830079 z m 418.595703,0.142579 c -3.95625,0.06298 -8.076,0.985103 -16.91016,2.347656 -4.71524,1.133742 -8.93872,3.896666 -13.0918,7.337891 -3.71721,3.080073 -5.78929,4.608036 -9.9082,9.871093 -10.88639,12.499183 -92.98154,115.287443 -125.57422,155.103523 88.32914,14.35057 164.73898,71.5061 205.66211,153.83789 0.43858,-112.98572 1.14126,-280.37902 0.61328,-299.74024 -3.58151,-10.196723 -3.42167,-10.404612 -9.60742,-16.32422 -8.95902,-8.573554 -5.92238,-5.726108 -15.25,-9.628906 -8.18346,-2.072143 -11.97734,-2.867668 -15.93359,-2.804687 z" style="fill:#f2ebe5;fill-opacity:1;fill-rule:evenodd;stroke:none;stroke-width:1.58094394px;stroke-linecap:butt;stroke-linejoin:miter;stroke-opacity:1"/>
    <path sodipodi:nodetypes="ccscsccccccccccsccccsc" inkscape:connector-curvature="0" id="path4668" d="m 131.81836,125.58008 c 0,0 28.85352,39.22656 29.85352,53.72656 0,0 -15.53197,-17.98769 -32.05665,-26.82031 -5.67055,-3.03097 9.19141,15.57031 9.19141,15.57031 0,0 -14.97612,-3.23922 -12.58203,0.39258 5.73555,8.70076 16.43359,23.44336 16.43359,23.44336 -13.00677,-6.21751 -30.09192,-19.18805 -36.68956,-13.11163 -0.498,7.44201 42.11446,33.82481 45.45909,41.10772 0,0 -24.96702,-10.98858 -36.46702,-10.98858 0,0 2.75381,7.73553 9.30264,18.48748 l -4.54391,-0.36211 c 3.88908,9.19239 23.68095,15.5912 21.77275,20.89251 -11.59741,-6.07323 -32.12947,-8.07235 -38.87947,-5.57235 0.93602,4.75698 14.48828,14.99219 14.23828,21.74219 -9.93643,2.30816 -13.1813,-0.69355 -16.36328,1.07422 2.5,8.25 8.08282,13.72372 10.26788,15.64453 7.08331,6.22669 20.83838,12.19859 20.83838,12.19859 0.98305,4.52529 -23.89671,14.29563 -23.89671,14.29563 5.92768,2.15425 10.75466,7.16426 19.43945,7.11524 32.12884,-28.07353 70.20916,-48.53057 111.57226,-59.42774 -3.31618,-8.6912 -17.37559,-32.72067 -28.89062,-48.05078 -37.09439,-49.38425 -78,-81.35742 -78,-81.35742 z" style="fill:#fffcf7;fill-opacity:1;fill-rule:evenodd;stroke:none;stroke-width:1.58094394px;stroke-linecap:butt;stroke-linejoin:miter;stroke-opacity:1"/>
    <path sodipodi:nodetypes="ccsssscsssscccccssccccccc" id="path3752" d="m 496.50667,12.694486 c -36.4362,7.299424 -63.88526,35.191577 -84.46907,64.489552 -8.58097,10.501183 -17.16194,21.002367 -25.74289,31.503552 l -25.74291,31.50355 -25.74291,31.50355 c -4.29047,5.2506 -8.58095,10.50118 -12.87144,15.75177 -4.29048,5.2506 -7.3215,6.00311 -13.23129,6.57571 -5.91576,-0.65533 -6.44745,-0.97813 -11.27126,-6.29042 C 291.27997,180.9535 280.37886,167.52384 274.63187,160.3931 263.13792,146.13165 251.61848,131.88725 240.04488,117.69045 228.47128,103.49365 216.84353,89.344438 205.13293,75.273325 193.42234,61.202212 181.6289,47.209182 169.72394,33.324762 126.55018,-2.8807683 51.077837,6.3120733 22.618711,56.565683 5.8346981,87.921114 13.936277,124.41885 11.777324,158.33891 c -0.727645,134.75324 -1.223366,383.88467 -0.86748,470.9328 8.898518,32.89244 48.091005,56.67812 78.737098,81.78865 60.921358,48.2855 133.517948,107.37196 183.608748,144.42227 9.85241,7.28745 20.74139,12.4595 34.55828,12.54273 12.92689,0.0779 28.83781,-7.07869 36.63093,-12.73456 50.69291,-37.29756 97.10663,-76.91894 145.90186,-115.24583 36.09438,-28.81583 71.52365,-57.99772 106.9945,-87.12105 17.5659,-22.44787 9.72496,-48.23651 11.61804,-72.36112 0.36692,-87.67969 0.41285,-364.79452 -0.45262,-500.480575 -8.87738,-45.838239 -58.90915,-75.06651 -103.66565,-68.260593 -2.77811,0.290956 -5.55624,0.581898 -8.33436,0.872854 z" style="fill:none;fill-opacity:1;fill-rule:evenodd;stroke:#000000;stroke-width:1.58094394px;stroke-linecap:butt;stroke-linejoin:miter;stroke-opacity:1" inkscape:connector-curvature="0"/>
    <path style="fill:#fffcf7;fill-opacity:1;fill-rule:evenodd;stroke:none;stroke-width:1.58094394px;stroke-linecap:butt;stroke-linejoin:miter;stroke-opacity:1" d="m 483.37839,125.58007 c 0,0 -28.85352,39.22657 -29.85352,53.72656 0,0 15.53197,-17.98768 32.05664,-26.8203 5.67057,-3.03097 -9.1914,15.57031 -9.1914,15.57031 0,0 14.97613,-3.23923 12.58204,0.39258 -5.73556,8.70075 -16.4336,23.44336 -16.4336,23.44336 13.00678,-6.21751 30.09193,-19.18805 36.68955,-13.11164 0.49802,7.44202 -42.11445,33.82482 -45.45908,41.10772 0,0 24.96701,-10.98857 36.46702,-10.98857 0,0 -2.75381,7.73552 -9.30264,18.48748 l 4.54391,-0.36212 c -3.88908,9.1924 -23.68095,15.59121 -21.77275,20.89251 11.59741,-6.07323 32.12946,-8.07235 38.87948,-5.57234 -0.93603,4.75698 -14.48829,14.99219 -14.23828,21.74219 9.93642,2.30816 13.18129,-0.69355 16.36327,1.07422 -2.49999,8.24999 -8.08281,13.72371 -10.26788,15.64453 -7.08331,6.22669 -20.83838,12.19858 -20.83838,12.19858 -0.98304,4.52529 23.89671,14.29564 23.89671,14.29564 -5.92768,2.15424 -10.75465,7.16425 -19.43946,7.11524 -32.12883,-28.07353 -70.20915,-48.53057 -111.57224,-59.42775 3.31617,-8.69119 17.37558,-32.72067 28.89061,-48.05078 37.09439,-49.38425 78,-81.35742 78,-81.35742 z" id="path4688" inkscape:connector-curvature="0" sodipodi:nodetypes="ccscsccccccccccsccccsc"/>
    <path inkscape:connector-curvature="0" id="path4762" d="m 516.04492,670.55859 c -19.02071,0 -37.56445,18.74998 -37.56445,38.02344 0,4.16528 0.46806,7.97508 1.38867,11.39258 l 53.41406,-43.02344 c -4.04451,-4.03958 -9.6745,-6.39258 -17.23828,-6.39258 z" style="fill:#432f16;fill-opacity:1;fill-rule:evenodd;stroke:none;stroke-width:1.58094394px;stroke-linecap:butt;stroke-linejoin:miter;stroke-opacity:1"/>
    <path inkscape:connector-curvature="0" id="path4798" d="m 47.486331,609.35742 c -6.444529,-0.1327 -13.167166,3.20924 -18.230469,8.22656 0.298222,1.39343 0.73914,2.73584 1.890625,5.10157 2.168486,5.37059 4.698261,11.20774 8.673828,16.11133 3.975569,4.90356 10.910968,12.39109 15.609376,15.66015 0.433696,0.30176 3.27769,2.55116 7.130859,5.61524 7.522434,-1.59846 13.121091,-5.32152 13.121094,-14.00196 2e-6,-14.33957 -8.338679,-32.04039 -24.306641,-36.18359 -1.273559,-0.33045 -2.575103,-0.50225 -3.888672,-0.5293 z" style="fill:#432f16;fill-opacity:1;fill-rule:evenodd;stroke:none;stroke-width:1.58094394px;stroke-linecap:butt;stroke-linejoin:miter;stroke-opacity:1"/>
    <path inkscape:connector-curvature="0" id="path4801" d="m 36.271487,482.78906 c -3.040268,0 -5.37866,0.79389 -7.185546,2.20508 l -0.279297,54.0918 c 2.289272,2.80078 5.41881,4.4707 9.673828,4.4707 12.814077,0 27.068358,-15.07246 27.068359,-30.9375 3e-6,-15.86506 -16.463264,-29.83008 -29.277344,-29.83008 z" style="fill:#432f16;fill-opacity:1;fill-rule:evenodd;stroke:none;stroke-width:1.58094394px;stroke-linecap:butt;stroke-linejoin:miter;stroke-opacity:1"/>
    <path style="color:#000000;font-style:normal;font-variant:normal;font-weight:normal;font-stretch:normal;font-size:medium;line-height:normal;font-family:sans-serif;font-variant-ligatures:normal;font-variant-position:normal;font-variant-caps:normal;font-variant-numeric:normal;font-variant-alternates:normal;font-feature-settings:normal;text-indent:0;text-align:start;text-decoration:none;text-decoration-line:none;text-decoration-style:solid;text-decoration-color:#000000;letter-spacing:normal;word-spacing:normal;text-transform:none;writing-mode:lr-tb;direction:ltr;text-orientation:mixed;dominant-baseline:auto;baseline-shift:baseline;text-anchor:start;white-space:normal;shape-padding:0;clip-rule:nonzero;display:inline;overflow:visible;visibility:visible;opacity:1;isolation:auto;mix-blend-mode:normal;color-interpolation:sRGB;color-interpolation-filters:linearRGB;solid-color:#000000;solid-opacity:1;vector-effect:none;fill:#000000;fill-opacity:0.98888885;fill-rule:evenodd;stroke:none;stroke-width:20.10000038;stroke-linecap:butt;stroke-linejoin:miter;stroke-miterlimit:4;stroke-dasharray:none;stroke-dashoffset:0;stroke-opacity:1;color-rendering:auto;image-rendering:auto;shape-rendering:auto;text-rendering:auto;enable-background:accumulate" mask="none" d="m 504.60352,19.666016 c -9.58078,0.143473 -19.26523,1.843137 -25.90625,4.373046 -7.58971,2.891326 -12.28909,5.05933 -20.24024,10.119141 -7.46131,4.814923 -10.58568,7.578448 -16.26367,13.734375 -4.69841,5.421247 -133.48828,163.695312 -133.48828,163.695312 -3.67349,4.40822 -6.81145,10.37823 -9.74805,10.26172 -2.93662,-0.60631 -4.95669,-4.57126 -10.09961,-11.18359 L 155.19336,44.042969 C 144.38998,34.656414 141.30505,32.697845 131.37695,27.291016 121.27173,22.769706 105.67897,19.523983 97.041016,20.0625 88.934395,19.715498 76.079877,21.147813 68.851562,23.677734 61.62325,26.20764 52.190912,31.25994 45.876953,35.78125 39.031671,40.833868 33.049604,47.898899 29.796875,54.042969 26.544131,60.187039 22.207163,67.07104 21.144531,77.166016 L 18.421875,602.94336 c 0.885518,4.46254 0.554154,5.23817 2.722656,9.69336 2.168486,5.37059 4.69826,11.20775 8.673828,16.11133 3.975569,4.90359 10.910968,12.39109 15.609375,15.66015 4.698392,3.26906 230.699216,185.28516 230.699216,185.28516 5.34321,3.70222 13.89909,8.49214 21.67578,8.64062 7.9951,0.15272 18.52134,-4.85032 23.19336,-8.61132 L 566.88086,631.7832 c 4.65311,-5.69613 3.65154,-3.20991 6.9043,-7.64648 3.25273,-4.43657 3.34544,-5.28023 4.42968,-9.7168 2.30875,-8.07576 1.67774,-15.09375 1.67774,-15.09375 l 1.08398,-516.376951 c 0,0 0.36202,-6.505712 -2.52929,-15.179688 -2.89134,-8.67396 -0.37386,-4.757756 -5.07227,-13.070312 -4.69839,-8.312556 -4.68583,-7.529758 -11.55273,-13.673828 -6.86689,-6.144054 -11.7992,-10.014742 -18.30469,-13.628907 -6.50547,-3.614149 -9.52533,-4.442918 -17.83789,-6.25 -8.31257,-1.807067 -6.14387,-1.083892 -16.98633,-1.445312 -1.35531,-0.04518 -2.72116,-0.05565 -4.08984,-0.03516 z M 504.75,29.724609 c 1.21672,-0.02384 2.42321,-0.01805 3.60938,0.02148 5.62199,0.187402 8.14179,0.118011 9.2871,0.173828 1.1453,0.05582 1.83681,0.163919 5.89844,1.046875 8.18299,1.778917 9.17036,1.925158 15.0918,5.214844 5.72774,3.182083 9.83653,6.385924 16.48437,12.333984 7.17847,6.422859 4.93474,3.044968 9.50391,11.128906 2.30353,4.075457 2.31211,4.259838 2.2832,4.15625 -0.0289,-0.103587 0.42502,2.409821 2.00391,7.146485 2.33501,7.005032 2.0293,11.443359 2.0293,11.443359 l -0.0137,0.269531 -1.08593,517.105469 0.041,0.45898 c 0,0 0.42261,5.30282 -1.33008,11.43359 l -0.0547,0.1875 -0.0449,0.1875 c -1.12261,4.59356 0.17407,2.13992 -2.77343,6.16016 -1.38774,1.8928 -0.68041,1.06661 -1.43555,1.72656 -0.60031,0.52465 -2.30656,2.33623 -4.0918,4.375 L 314.69336,821.89258 c -2.31957,1.86727 -13.06286,6.46202 -16.69922,6.39258 -3.76411,-0.0719 -11.44931,-3.64776 -16.01367,-6.78321 -0.44625,-0.3594 -56.27833,-45.32384 -113.14258,-91.05664 -28.54552,-22.9576 -57.23864,-46.0178 -79.093749,-63.54687 -10.927552,-8.76454 -20.145079,-16.14537 -26.78711,-21.44532 -3.321015,-2.64997 -5.99621,-4.77846 -7.93164,-6.30859 -1.93543,-1.53013 -2.342831,-1.93251 -3.857422,-2.98633 -2.598025,-1.80765 -10.016034,-9.39002 -13.542969,-13.74023 -2.831786,-3.49282 -5.063009,-8.34618 -7.162109,-13.54492 l -0.128907,-0.32227 -0.152343,-0.3125 c -1.524764,-3.13263 -1.238028,-3.10434 -1.705079,-6.00781 L 31.191406,77.941406 c 0.864269,-7.569632 4.005122,-12.616015 7.488282,-19.195312 2.350204,-4.439295 7.631572,-10.76844 13.103515,-14.826172 5.349835,-3.821648 14.541083,-8.709206 20.388672,-10.75586 4.838074,-1.693334 17.966883,-3.337602 24.439453,-3.060546 l 0.527344,0.02148 0.527344,-0.03125 c 5.334834,-0.33259 21.040424,2.640762 29.330074,6.273438 9.04384,4.929285 11.32924,6.390398 21.00782,14.77539 L 280.94922,216.87109 c 2.34874,3.02289 3.99324,5.4878 5.9375,7.91797 1.95279,2.44082 4.76909,5.81429 10.03906,6.90235 l 0.8086,0.16797 0.82421,0.0332 c 4.20218,0.16672 7.13317,-1.69742 8.92579,-3.13281 1.79261,-1.43538 2.91129,-2.79813 3.9414,-4.09571 2.06024,-2.59516 3.6907,-5.07141 5,-6.64258 l 0.0371,-0.0449 0.0371,-0.0449 c 0,0 32.19598,-39.56711 64.97852,-79.81055 16.39127,-20.12172 32.92956,-40.412358 45.66015,-56.007809 12.66582,-15.516097 22.23202,-27.144474 22.53321,-27.498047 5.35361,-5.799579 7.22285,-7.484825 14.21484,-11.998046 7.50723,-4.774998 11.08423,-6.402902 18.38867,-9.185547 5.0038,-1.906211 13.95757,-3.540149 22.47461,-3.707032 z" transform="translate(10.001401,10.04827)" id="path4690" inkscape:connector-curvature="0"/>
    <path style="display:inline;opacity:1;fill:#432f16;fill-opacity:1;stroke:none;stroke-width:1000;stroke-miterlimit:4;stroke-dasharray:none;stroke-opacity:1;paint-order:normal" d="m 577.8089,515.42566 c 0,6.10194 -4.37976,7.88401 -9.80965,11.82979 -2.7359,1.98812 -14.5364,-2.05042 -14.5364,-8.15236 0,-6.10194 5.48051,-14.72598 12.19265,-14.72598 6.71214,0 12.1534,4.9466 12.1534,11.04855 z" id="path4722" inkscape:connector-curvature="0" sodipodi:nodetypes="sssss"/>
    <path style="display:inline;opacity:1;fill:#432f16;fill-opacity:1;stroke:none;stroke-width:1000;stroke-miterlimit:4;stroke-dasharray:none;stroke-opacity:1;paint-order:normal" d="m 576.1978,563.25366 c 1.10485,25.19855 -14.5807,33.09011 -26.78459,33.09011 -12.20389,0 -13.50334,-19.39775 -13.50334,-34.65261 0,-15.25486 5.98695,-21.37136 18.19084,-21.37136 12.20389,0 21.42887,7.69364 22.09709,22.93386 z" id="path4702" inkscape:connector-curvature="0" sodipodi:nodetypes="sssss"/>
    <path style="display:inline;opacity:1;fill:#432f16;fill-opacity:1;stroke:none;stroke-width:1000;stroke-miterlimit:4;stroke-dasharray:none;stroke-opacity:1;paint-order:normal" d="m 247.67693,751.48108 c 0,10.3733 -19.2267,19.33495 -26.5165,15.46796 -11.31999,-6.00487 -17.12524,-9.51408 -17.12525,-19.88738 0,-10.3733 5.41602,-19.88738 18.2301,-19.88738 12.81408,0 25.41165,13.9335 25.41165,24.3068 z" id="path4712" inkscape:connector-curvature="0" sodipodi:nodetypes="sssss"/>
    <path style="display:inline;opacity:1;fill:#432f16;fill-opacity:1;stroke:none;stroke-width:1000;stroke-miterlimit:4;stroke-dasharray:none;stroke-opacity:1;paint-order:normal" d="m 173.01262,676.31171 c 5.43566,10.9265 -4.5296,21.82087 -15.19174,24.85923 -12.91031,3.679 -27.75525,-0.006 -32.31699,-11.32476 -4.69564,-11.65146 3.57843,-27.15559 17.00271,-27.15559 13.42427,0 25.53418,3.62694 30.50602,13.62112 z" id="path4716" inkscape:connector-curvature="0" sodipodi:nodetypes="sssss"/>
    <path style="display:inline;opacity:1;fill:#432f16;fill-opacity:1;stroke:none;stroke-width:1000;stroke-miterlimit:4;stroke-dasharray:none;stroke-opacity:1;paint-order:normal" d="m 372.39146,776.8927 c 0,10.9835 -9.28525,22.9176 -21.48914,22.9176 -12.20389,0 -18.79879,-11.15285 -18.79879,-22.13635 0,-10.9835 6.7682,-18.32488 18.97209,-18.32488 12.20389,0 21.31584,6.56013 21.31584,17.54363 z" id="path4728" inkscape:connector-curvature="0" sodipodi:nodetypes="sssss"/>
    <path style="display:inline;opacity:1;fill:#432f16;fill-opacity:1;stroke:none;stroke-width:1000;stroke-miterlimit:4;stroke-dasharray:none;stroke-opacity:1;paint-order:normal" d="m 370.58383,739.97491 c 0,6.10195 -10.28355,7.09491 -15.7753,7.09491 -5.49175,0 -7.60808,-4.02318 -7.60808,-10.12513 0,-6.10194 7.16669,-11.14332 12.65844,-11.14332 5.49175,0 10.72494,8.0716 10.72494,14.17354 z" id="path4730" inkscape:connector-curvature="0" sodipodi:nodetypes="sssss"/>
    <path style="display:inline;opacity:1;fill:#432f16;fill-opacity:1;stroke:none;stroke-width:1000;stroke-miterlimit:4;stroke-dasharray:none;stroke-opacity:1;paint-order:normal" d="m 404.61909,758.28265 c 0,6.10194 -8.85286,11.82979 -14.9548,11.82979 -6.10194,0 -7.14229,-5.72785 -7.14229,-11.82979 0,-6.10194 7.25109,-7.92355 13.35303,-7.92355 6.10195,0 8.74406,1.8216 8.74406,7.92355 z" id="path4732" inkscape:connector-curvature="0" sodipodi:nodetypes="sssss"/>
    <path style="display:inline;fill:#625b55;fill-opacity:1;stroke:none;stroke-width:1.15731466px;stroke-linecap:butt;stroke-linejoin:miter;stroke-opacity:1" d="m 307.71836,393.42393 c -26.59777,-22.18264 -35.80888,-76.19045 -40.84552,-101.02372 -6.09829,30.67639 -27.56069,103.96515 -46.44896,105.9066 1.04008,-44.59089 30.85143,-105.55067 46.44896,-108.09776 20.80029,0.0509 40.83112,69.45009 41.40514,98.45807 1.14805,-28.615 26.75354,-98.24312 44.21765,-99.18847 27.18616,11.44802 40.85271,89.56736 38.05458,108.09776 -19.01209,-10.09185 -34.5102,-80.66726 -38.05458,-104.44581 -5.03664,22.6421 -17.4941,81.1433 -44.77727,100.29333 z" id="path4736" inkscape:connector-curvature="0" sodipodi:nodetypes="ccccccccc"/>
    <path style="fill:#21262a;fill-opacity:1;stroke:none;stroke-width:1.30721247px;stroke-linecap:butt;stroke-linejoin:miter;stroke-opacity:1" d="m 277.62684,580.46748 c -5.56092,-5.34372 -21.50198,-23.72198 -10.89518,-31.73595 9.585,-6.87227 26.42775,-10.60613 43.1214,-10.80229 16.69365,0.20479 33.54503,3.93002 43.13003,10.80229 10.6068,8.01397 -5.33426,26.39223 -10.89518,31.73595 -11.27888,10.83832 -8.88804,31.89234 -32.23054,33.35926 -23.34249,-1.46692 -20.95165,-22.52094 -32.23053,-33.35926 z" id="path4742" inkscape:connector-curvature="0" sodipodi:nodetypes="scccscs"/>
    <path style="opacity:1;fill:#ffffff;fill-opacity:1;stroke:none;stroke-width:22.29358482;stroke-linejoin:round;stroke-miterlimit:4;stroke-dasharray:none;stroke-opacity:0.98888885;paint-order:markers stroke fill" d="m 508.31641,2.6621094 c -1.97793,0.014818 -4.03244,0.073993 -6.17774,0.1738281 -17.80697,0.8286797 -24.40335,2.5172277 -39.9375,10.2246095 -19.90711,9.877062 -35.86686,24.174796 -55.04101,49.306641 -15.76827,20.667695 -96.50666,118.724932 -99.21875,120.501952 -1.6613,1.08853 -5.23296,1.84649 -8.96094,1.90039 l -6.19922,0.0898 -6.79297,-7.20118 c -3.73631,-3.96 -18.50873,-21.66253 -32.82617,-39.33984 C 189.91795,60.232682 160.58282,25.521836 153.48828,20.382812 145.93419,14.910908 131.85535,8.3876268 121.69727,5.6523438 108.14713,2.0036798 84.57417,2.2156601 69.890625,6.1171875 49.962807,11.412158 31.206074,23.262991 20.59375,37.265625 10.065212,51.157702 5.2656002,65.570862 3.6953125,88.003906 3.1664188,95.559652 2.6459706,218.53381 2.5390625,361.2793 L 2.34375,620.81641 l 3.7890625,7.76367 c 7.6378185,15.6515 19.1375005,27.94019 45.5507815,48.67969 5.04078,3.95798 18.937468,14.98576 34.632812,27.45898 v 0.38672 l 12.101563,9.63867 c 6.655771,5.30097 21.473431,17.12521 32.927731,26.27734 66.46365,53.10533 96.45803,76.64558 123.82618,97.18164 11.89463,8.92531 14.63748,10.76812 19.83593,13.32227 5.82863,2.86378 11.70773,4.61312 17.60547,5.24023 8.76236,0.93172 18.03452,-0.78367 28.51172,-5.27539 7.38538,-3.16622 9.6815,-4.63135 23.48047,-14.99218 22.85215,-17.15832 39.43838,-30.24431 84.98828,-67.04883 10.44665,-8.44095 24.45287,-19.71735 31.125,-25.0586 l 12.13086,-9.71093 v -0.50781 c 54.8074,-44.09938 98.31863,-79.46965 108.36328,-88.17579 7.59926,-6.58661 12.11082,-14.11153 14.76367,-24.625 1.2932,-5.12511 1.52861,-49.80395 1.47071,-279.50195 l -0.0703,-273.402343 -2.5,-7.208985 C 590.85488,49.666575 584.10453,39.302909 574.29102,29.648438 564.54845,20.063772 557.61539,15.47703 544.07617,9.6621094 c -11.78596,-5.0619177 -21.91428,-7.1037286 -35.75976,-7 z M 94.986328,19.447266 c 20.996622,-0.135664 40.518332,6.817261 55.812502,20.228515 4.73853,4.155156 92.38997,112.189919 135.6875,167.242189 5.84015,7.42566 11.41041,13.65304 12.3789,13.83984 1.01866,0.19649 3.32067,-1.68924 5.46289,-4.47461 2.03673,-2.64817 25.23976,-31.25057 51.56055,-63.56054 C 456.69153,28.982573 448.80462,37.688353 468.85547,28 c 14.94035,-7.219015 20.20278,-8.332884 39.375,-8.333984 13.49689,-7.86e-4 17.32996,0.392543 23.8457,2.445312 10.05114,3.166589 19.59114,9.028678 29.85547,18.345703 9.68982,8.795535 14.046,15.870481 17.20117,27.941407 2.27195,8.691987 2.29828,10.515868 2.15039,142.523442 -0.26399,235.64638 -1.48826,401.63795 -2.99609,406.19921 -2.54284,7.69218 -1.40244,7.47879 -53.81635,49.33983 -52.41391,41.86105 -46.24274,36.90026 -130.80084,104.97658 -40.27,32.42069 -74.02301,59.47151 -75.00586,60.11133 -2.65584,1.72892 -7.45265,3.96957 -11.23242,5.24805 -5.79127,1.95885 -10.49398,2.12681 -16.53906,0.58984 -2.3384,-0.59454 -8.46183,-3.5222 -12.07031,-5.76953 -1.25723,-0.78299 -30.95498,-24.49176 -65.99415,-52.6875 -35.03916,-28.19573 -75.68561,-60.89264 -90.32617,-72.65821 L 95.882812,684.88086 H 95.117188 C 88.541137,679.61536 80.257319,672.96692 74.966797,668.74023 55.365223,653.0802 36.743555,637.44127 33.585938,633.98633 27.960968,627.83172 22.65376,618.73394 19.466797,609.7832 18.075801,605.87652 18.031426,570.80405 19.125,341.86914 19.927669,173.83368 20.792005,76.30007 21.509766,72.513672 23.331046,62.90587 30.863881,49.498689 39.066406,41.265625 47.45225,32.84856 62.335079,24.531956 73.599609,21.96875 c 7.22472,-1.643962 14.387844,-2.476263 21.386719,-2.521484 z" id="path4908" inkscape:connector-curvature="0" transform="translate(10.001401,10.04827)" sodipodi:nodetypes="ssssccccsssssscccscccssscssscccsccccssssscccssssscsccscsscscccssssssss"/>
  </g>
</svg>